<svg width="356" height="200" viewBox="0 0 356 200" fill="none" xmlns="http://www.w3.org/2000/svg">
<g clip-path="url(#clip0_11_216)">
<g opacity="0.7">
<mask id="mask0_11_216" style="mask-type:luminance" maskUnits="userSpaceOnUse" x="0" y="0" width="356" height="200">
<path d="M0 0V200H355.556V0H0Z" fill="white"/>
</mask>
<g mask="url(#mask0_11_216)">
<path fill-rule="evenodd" clip-rule="evenodd" d="M0 0V200H355.556V0H0Z" fill="#72CBCC"/>
<path d="M37.5741 61.0741C62.0741 68.5741 87.6667 73.9815 113.037 80.6296C121.241 82.7778 129.611 84.4259 137.926 86.6852C140.148 87.2408 142.37 87.7901 144.593 88.3333C140.111 87.2222 135.574 85.3148 131.37 84C121.741 81.0494 112.117 78.1049 102.5 75.1667C92.1852 71.9074 82.0926 68.8704 71.7222 65.6667C68.8457 64.7037 65.963 63.7408 63.0741 62.7778C53.7408 59.9815 44.7037 57.4074 35.8519 53.963C27.6667 50.9383 19.4753 47.9136 11.2778 44.8889C7.2778 43.2716 3.27162 41.6543 -0.740723 40.037C-0.740723 43.1482 -0.740723 46.2531 -0.740723 49.3519C3.50619 50.6482 7.75928 51.9383 12.0185 53.2222C20.5371 55.9074 28.9445 58.4259 37.5741 61.0741Z" fill="#6493D8"/>
<path d="M23.5371 74.5C31.4877 75.821 39.4383 77.1481 47.3889 78.4815C60.179 80.358 72.9692 82.2346 85.7593 84.1111C86.9198 84.2222 88.0864 84.3272 89.2593 84.4259C95.0988 85.2407 100.944 86.0555 106.796 86.8704C114.265 87.8951 121.741 88.9197 129.222 89.9444C135.395 90.7346 141.568 91.5309 147.741 92.3333C147.741 92.3086 147.741 92.2901 147.741 92.2778C142.222 91.4074 136.889 90.1852 131.611 88.963C126.685 87.9876 121.759 87.0062 116.833 86.0185C105.759 83.4259 94.3519 81.8333 83.5 79.1481C76.179 77.679 68.8642 76.2099 61.5556 74.7407C47.5 71.6667 33.3334 68.463 19.7408 65.1111C12.7037 63.3889 6.12965 61.9444 -0.740723 59.963C-0.740723 63.2963 -0.740723 66.6296 -0.740723 69.963C2.44446 70.5555 5.63582 71.1481 8.83335 71.7407C13.7222 72.7963 18.8148 73.4074 23.5371 74.5Z" fill="#6493D8"/>
<path d="M31.0741 42C49.6667 50 68.6482 57.8703 88.1482 64.8148C97.6482 68.1852 106.981 71.3148 116.537 74.6852C127.525 78.5987 138.519 82.5185 149.519 86.4444C149.519 86.4321 149.519 86.4136 149.519 86.3889C143.648 84.5 138.074 81.4815 132.537 79.0926C126.426 76.4444 120.167 73.9444 114.093 71.4259C102.611 66.7037 91.6296 61.8518 80.3148 57.0926C74.1296 54.4815 68.0926 51.3148 61.7963 48.9259C55.8457 46.0864 49.8951 43.2469 43.9445 40.4074C40.6852 38.7284 37.4198 37.0555 34.1482 35.3889C31.4445 33.9938 28.7469 32.6049 26.0556 31.2222C24.5371 30.7592 23.5926 30.1296 22.3704 29.4444C22.0617 29.358 21.7593 29.2716 21.463 29.1852C19.1296 27.5 16.2778 26.4444 13.7222 24.9629C9.12965 22.2778 4.16668 19.7963 -0.740723 17.537C-0.740723 20.9691 -0.740723 24.4074 -0.740723 27.8518C2.14817 29.1111 5.03088 30.3765 7.90742 31.6481C15.6482 35.0555 23.2778 38.6481 31.0741 42Z" fill="#6493D8"/>
<path d="M146.889 88.8333C146.284 88.7222 145.679 88.5988 145.074 88.463C145.679 88.6111 146.284 88.7592 146.889 88.9074C146.889 88.8827 146.889 88.858 146.889 88.8333Z" fill="#6493D8"/>
<path d="M64.8519 56.7222C64.7902 56.7222 64.7284 56.7222 64.6667 56.7222C64.4445 57.2037 64.2593 57.4074 63.7593 57.6296C63.7223 58.9445 63.6667 60.0741 63.2037 61.1852C63.2408 61.2716 63.284 61.358 63.3334 61.4445C63.6852 61.3333 63.7593 61.1111 64.0556 60.9445C64.1173 60.4753 64.179 60.0062 64.2408 59.537C64.1852 59 63.9815 58.8704 63.9445 58.3148C64.4445 58.0556 64.8519 57.4445 64.8519 56.7222Z" fill="#6493D8"/>
<path d="M63.8704 62.4815C63.8951 62.4445 63.9198 62.4012 63.9445 62.3519C63.8951 62.3148 63.8519 62.2778 63.8148 62.2408C63.7901 62.2778 63.7716 62.3148 63.7593 62.3519C63.7963 62.4012 63.8334 62.4445 63.8704 62.4815Z" fill="#6493D8"/>
<path d="M32.8519 90.7963C37.5803 91.1296 42.3025 91.4568 47.0185 91.7778C54.5741 92.2099 62.1358 92.642 69.7037 93.0741C77.8395 93.358 85.9692 93.642 94.0926 93.9259C95.6111 93.9259 97.1235 93.9259 98.6296 93.9259C115.037 94.4197 131.451 94.9136 147.87 95.4074C143.228 95.0123 138.586 94.6234 133.944 94.2407C125.216 93.4753 116.494 92.716 107.778 91.9629C105.235 91.7778 102.698 91.5926 100.167 91.4074C97.5741 91.1852 94.9815 90.9629 92.3889 90.7407C84.5741 89.9876 76.7654 89.2284 68.963 88.4629C62.2593 87.6481 55.5556 86.8333 48.8519 86.0185C46.8766 85.8333 44.8951 85.6481 42.9074 85.4629C37.142 84.7099 31.3827 83.9568 25.6296 83.2037C23.963 82.9074 22.5185 83.0741 20.7222 82.7778C13.5741 81.7901 6.41977 80.8086 -0.740723 79.8333C-0.740723 82.7099 -0.740723 85.5864 -0.740723 88.4629C9.35804 89.2037 19.4568 89.9444 29.5556 90.6852C30.6543 90.7222 31.7531 90.7592 32.8519 90.7963Z" fill="#6493D8"/>
<path d="M226.574 41.7593C223.963 45.1852 220.852 48.1667 218.185 51.5C216.482 53.5494 214.784 55.5926 213.093 57.6296C210.142 61.0864 207.198 64.5432 204.259 68C203.056 69.5 200.741 71.3704 199.963 73.0926C204.914 67.9321 209.858 62.7778 214.796 57.6296C217.216 55.2469 219.63 52.858 222.037 50.463C222.963 49.4877 223.883 48.5062 224.796 47.5185C227.019 45.6852 229.241 43.3889 231.056 41.1481C233.482 38.1296 236.759 35.7778 239.204 32.7407C239.982 31.9877 240.759 31.2346 241.537 30.4815C242.852 29.1667 244.056 27.7778 245.519 26.6111C251.469 20.4877 257.414 14.358 263.352 8.22222C265.759 5.25926 269.13 3.03703 271.333 -0.111115C268.568 -0.111115 265.809 -0.111115 263.056 -0.111115C262.815 1.05555 259.222 4.35185 258.333 5.46296C254.704 10.0741 250.463 14.1111 246.796 18.6481C240.056 26.3518 233.315 34.0556 226.574 41.7593Z" fill="#6493D8"/>
<path d="M258.093 20.8518C256.006 22.8765 253.92 24.9012 251.833 26.9259C250.556 27.963 249.574 29.3148 248.333 30.3518C245.654 32.9691 242.982 35.5864 240.315 38.2037C238.488 40.0062 236.667 41.8025 234.852 43.5926C233.284 45.1481 231.71 46.7037 230.13 48.2593C228.315 50.1235 226.494 51.9815 224.667 53.8333C221.407 56.9444 218.142 60.0494 214.87 63.1481C214.13 63.9259 213.395 64.7037 212.667 65.4815C210.722 67.0555 209.222 69.0926 207.333 70.6852C206.093 71.7407 204.685 72.8333 203.704 74.1296C205.407 73.3333 206.667 71.3889 208.13 70.2593C212.685 66.7407 216.907 62.7407 221.426 59.1667C230.352 51.463 239.284 43.7593 248.222 36.0556C250.611 34.1852 252.704 31.9074 255.074 29.9815C257.877 27.4506 260.679 24.9197 263.482 22.3889C267.556 19.1111 271.241 15.3704 275.13 11.9074C276.685 10.3889 278.235 8.87654 279.778 7.37037C281.457 5.8395 283.136 4.30864 284.815 2.77777C285.796 1.98148 287.111 1.03703 287.759 -0.0555589C285.056 -0.0679046 282.358 -0.0864231 279.667 -0.111115C279.296 1.03703 275.037 4.53703 273.963 5.59259C270.494 8.93827 267.019 12.2901 263.537 15.6481C261.593 17.2037 260.037 19.2778 258.093 20.8518Z" fill="#6493D8"/>
<path d="M221.426 35.5741C216.185 42.9259 210.944 50.2778 206.037 57.9444C202.506 63.0556 198.969 68.1667 195.426 73.2778C199.315 68.1173 203.198 62.963 207.074 57.8148C209.494 54.9012 211.907 51.9815 214.315 49.0556C220.673 40.9444 227.031 32.8333 233.389 24.7222C237.611 19.1296 242.204 13.7407 246.5 8.16666C248.648 5.52469 250.796 2.88889 252.944 0.259256C253.043 0.16049 253.142 0.0555522 253.241 -0.0555589C250.809 -0.0679046 248.377 -0.0864231 245.944 -0.111115C245.778 0.96296 242.667 4.7037 241.907 5.77777C238.63 10.4259 235.407 15.0926 232.148 19.6852C228.426 24.9444 225.148 30.3333 221.426 35.5741Z" fill="#6493D8"/>
<path d="M9.37039 109.315C9.33335 109.414 9.29631 109.519 9.25928 109.63C9.29631 109.63 9.33335 109.63 9.37039 109.63C9.37039 109.519 9.37039 109.414 9.37039 109.315Z" fill="#6493D8"/>
<path d="M37.7593 105.704C40.5864 105.58 43.4074 105.457 46.2222 105.333C55.5803 104.765 64.9383 104.191 74.2963 103.611C80.7222 102.593 87.3704 103.148 93.5556 102.148C95.8025 102.025 98.0494 101.901 100.296 101.778C105.284 101.432 110.265 101.086 115.241 100.741C125.586 99.8765 135.926 99.0185 146.259 98.1666C145.568 98.1666 144.877 98.1666 144.185 98.1666C141.63 98.2284 139.074 98.2839 136.519 98.3333C125.605 98.5679 114.691 98.7963 103.778 99.0185C89.8642 99.1419 75.9506 99.2654 62.0371 99.3889C55.5556 99.3889 49.0803 99.3889 42.6111 99.3889C40.2161 99.3642 37.821 99.3395 35.4259 99.3148C33.4259 99.2777 31.4259 99.2407 29.4259 99.2037C27.8951 99.2037 26.3642 99.2037 24.8334 99.2037C16.3025 99.0802 7.7778 98.9568 -0.740723 98.8333C-0.740723 101.833 -0.740723 104.839 -0.740723 107.852C7.37039 107.42 15.4815 106.988 23.5926 106.556C28.321 106.272 33.0432 105.988 37.7593 105.704Z" fill="#6493D8"/>
<path d="M135.907 109.5C137.191 109.29 138.481 109.086 139.778 108.889C141.062 108.519 142.346 108.148 143.63 107.778C143.63 107.765 143.63 107.747 143.63 107.722C143.556 107.722 143.475 107.722 143.389 107.722C141.556 108.593 138.222 108.833 136.037 109.315C132.741 110.037 129.481 110.889 126.407 111.833C125.222 112.185 122.463 112.537 121.685 113.241C126.167 112.556 131.407 111.333 135.481 110.056C136.519 109.722 138.222 109.833 139.037 109.259C139.074 109.259 139.111 109.259 139.148 109.259C138.815 109.148 138.315 109.37 137.926 109.444C135 109.963 132.722 111 129.778 111.222C129.778 111.198 129.778 111.173 129.778 111.148C131.685 110.611 133.907 110 135.907 109.5Z" fill="#6493D8"/>
<path d="M144.926 101.278C144.111 100.981 142.574 101.5 141.796 101.648C139.056 102.167 136.241 102.148 133.648 102.63C123.858 103.963 114.068 105.29 104.278 106.611C102.784 106.759 101.29 106.907 99.7963 107.056C94.0556 108.018 87.8148 108.056 81.9074 109.074C80.0679 109.235 78.2284 109.395 76.3889 109.556C72.9074 109.827 69.4321 110.093 65.963 110.352C61.6914 110.66 57.4198 110.969 53.1482 111.278C46.9013 111.784 40.6482 112.296 34.3889 112.815C32.5124 112.914 30.6296 113.012 28.7408 113.111C18.9136 113.951 9.08644 114.79 -0.740723 115.63C-0.740723 116.667 -0.740723 117.71 -0.740723 118.759C42.0556 114.074 84.8519 109.389 127.63 104.722C133.395 103.574 139.161 102.426 144.926 101.278Z" fill="#6493D8"/>
<path d="M231.852 56.4074C228.605 58.8765 225.352 61.3519 222.093 63.8333C219.846 65.6728 217.599 67.5123 215.352 69.3519C212.611 71.5123 209.877 73.679 207.148 75.8519C210.593 73.4198 214.043 70.9877 217.5 68.5556C227.259 62.2593 236.463 55.3889 246 49C262 38.2778 277.315 26.7963 292.963 15.7593C300.543 10.5123 308.124 5.26543 315.704 0.0185151C315.753 -0.00617622 315.796 -0.0308676 315.833 -0.0555589C312.179 -0.0679046 308.519 -0.0864231 304.852 -0.111115C304.611 0.648145 299.574 4.2037 298.611 4.9074C292.111 9.77777 285.759 14.7963 279.241 19.6296C263.148 31.5185 247.648 44.2222 231.852 56.4074Z" fill="#6493D8"/>
<path d="M200.278 56.1667C197.475 61.6852 194.673 67.2037 191.87 72.7222C195.895 65.9938 199.926 59.2716 203.963 52.5555C210.093 43.3704 215.667 33.7222 221.556 24.3518C226.63 16.2222 232.204 8.27777 237 -0.111115C234.049 -0.111115 231.105 -0.111115 228.167 -0.111115C224.549 7.30864 220.932 14.7284 217.315 22.1481C211.636 33.4815 205.957 44.821 200.278 56.1667Z" fill="#6493D8"/>
<path d="M134.982 0.0740707C134.982 0.0123423 134.982 -0.0493861 134.982 -0.111115C133.815 -0.111115 133.333 0.166663 132.482 0.314811C132.37 0.179009 132.265 0.0370337 132.167 -0.111115C132.043 -0.111115 131.92 -0.111115 131.796 -0.111115C132.37 1.14814 133.685 -0.0185219 134.982 0.0740707Z" fill="#6493D8"/>
<path d="M122.907 19.6296C131.444 31.537 139.889 43.6667 148.778 55.2407C151.778 59.1481 154.556 63.2593 157.426 67.2037C158.704 68.963 159.852 71.2963 161.463 72.7222C158.142 67.463 154.815 62.2099 151.482 56.963C143.519 43.8704 135.463 31.0926 127.389 18.1481C124.772 14.0494 122.154 9.94444 119.537 5.83333C118.704 4.5 116.093 1.31481 115.796 -0.111115C113.549 -0.111115 111.303 -0.111115 109.056 -0.111115C110.833 2 112.241 4.42592 113.833 6.68518C116.87 10.9815 119.833 15.3333 122.907 19.6296Z" fill="#6493D8"/>
<path d="M134.185 17.2407C135.679 19.9815 137.173 22.716 138.667 25.4444C143.222 33.4815 147.778 41.5123 152.333 49.537C155.444 54.8148 158.13 60.3704 161.222 65.6111C162.407 67.6728 163.593 69.7346 164.778 71.7963C164.778 71.8333 164.778 71.8765 164.778 71.9259C164.802 71.9259 164.827 71.9259 164.852 71.9259C161.988 65.7284 159.123 59.537 156.259 53.3519C151.037 41.3333 145.556 29.8148 139.704 18.3333C136.741 12.1852 133.778 6.03703 130.815 -0.111115C128.605 -0.111115 126.401 -0.111115 124.204 -0.111115C125.401 1.97531 126.605 4.06173 127.815 6.14814C130.019 9.79629 131.982 13.6667 134.185 17.2407Z" fill="#6493D8"/>
<path d="M186.982 35.3148C187.451 31.1543 187.92 26.9877 188.389 22.8148C189.179 15.1728 189.975 7.53086 190.778 -0.111115C189.123 -0.111115 187.469 -0.111115 185.815 -0.111115C184.259 25.2037 182.704 50.537 181.148 75.8519C181.173 75.8519 181.191 75.8519 181.204 75.8519C183.426 65.7222 184 54.9074 185.87 44.463C186.241 41.4136 186.611 38.3642 186.982 35.3148ZM181.759 71C181.37 69.9815 181.907 67.7593 182 66.7037C182.278 64 182.204 61.3519 182.685 58.8704C182.784 58.784 182.883 58.6975 182.982 58.6111C183.043 58.6111 183.105 58.6111 183.167 58.6111C182.982 58.8333 182.87 58.8889 182.796 59.2222C183.111 59.1111 183.056 58.9815 183.352 58.8704C183.333 63.1667 182.241 67.0185 181.759 71Z" fill="#6493D8"/>
<path d="M173.741 27.963C174.21 32.7901 174.679 37.6111 175.148 42.4259C175.87 46.8518 175.759 51.7593 176.482 56.3518C176.593 57.9444 176.698 59.537 176.796 61.1296C177.167 65.7716 177.537 70.4136 177.907 75.0555C177.944 75.0679 177.982 75.0864 178.019 75.1111C178.043 72.6173 178.068 70.1235 178.093 67.6296C178.031 61.9259 177.969 56.2222 177.907 50.5185C177.858 45.0494 177.815 39.5741 177.778 34.0926C177.568 22.6975 177.364 11.2963 177.167 -0.111115C174.883 -0.111115 172.593 -0.111115 170.296 -0.111115C171.049 5.66666 171.809 11.4506 172.574 17.2407C173.167 20.8148 173.167 24.537 173.741 27.963ZM177.537 59.9074C177.667 62.2407 177.963 66.1111 177.778 68.7963C177.519 68.2593 177.722 67.5555 177.593 66.8333C177.222 64.6852 177.519 61.7593 177.296 59.9074C177.37 59.9074 177.451 59.9074 177.537 59.9074Z" fill="#6493D8"/>
<path d="M62.8334 133.463C66.7593 132.241 70.6852 131.019 74.6111 129.796C83.0926 127.426 91.2408 124.741 99.3704 122.185C101.148 121.679 102.926 121.167 104.704 120.648C111.796 118.167 118.722 116 126.037 113.667C126.593 113.5 127 113.074 127.444 112.87C129.617 112.278 131.784 111.685 133.944 111.093C134.883 110.747 135.821 110.401 136.759 110.056C136.784 110.006 136.809 109.963 136.833 109.926C136.747 109.926 136.661 109.926 136.574 109.926C135.722 110.518 134.426 110.667 133.333 110.963C131.148 111.519 128.963 112.074 126.778 112.63C124.951 112.889 123.13 113.154 121.315 113.426C117.407 114.315 113.667 115.481 109.982 116.611C106.08 117.71 102.173 118.815 98.2593 119.926C65.2963 129.537 32.2963 139.167 -0.666649 148.796C-0.69134 148.833 -0.716031 148.877 -0.740723 148.926C-0.740723 150.049 -0.740723 151.173 -0.740723 152.296C10.1729 148.975 21.0864 145.66 32 142.352C42.4815 139.444 52.5371 136.685 62.8334 133.463ZM122.981 113.796C123.204 113.593 123.593 113.611 123.889 113.481C124.037 113.481 124.179 113.481 124.315 113.481C123.969 113.605 123.623 113.728 123.278 113.852C123.179 113.852 123.08 113.852 122.981 113.852C122.981 113.827 122.981 113.809 122.981 113.796ZM113.833 116C115.204 115.593 116.574 115.185 117.944 114.778C118.944 114.568 119.944 114.364 120.944 114.167C121.623 114.167 122.302 114.167 122.981 114.167C122.407 114.704 120.852 114.352 120.037 114.519C118.019 114.944 116.111 116 113.833 116.056C113.833 116.043 113.833 116.025 113.833 116ZM112.13 117.889C111.661 118.012 111.185 118.136 110.704 118.259C111.074 118.136 111.444 118.012 111.815 117.889C111.914 117.889 112.019 117.889 112.13 117.889ZM107.648 117.537C108.648 117.29 109.648 117.043 110.648 116.796C110.735 116.796 110.815 116.796 110.889 116.796C110.278 117.278 108.611 117.593 107.648 117.593C107.648 117.568 107.648 117.549 107.648 117.537ZM98.5185 120.111C99.8272 119.765 101.136 119.414 102.444 119.056C102.543 119.056 102.642 119.056 102.741 119.056C101.333 119.426 99.9259 119.796 98.5185 120.167C98.5185 120.142 98.5185 120.123 98.5185 120.111Z" fill="#6493D8"/>
<path d="M162.093 18.7778C163.667 24.8518 164.852 31.2037 166.444 37.463C167.568 41.9815 168.691 46.5 169.815 51.0185C170.482 54.1173 171.154 57.2222 171.833 60.3333C172.944 64.463 174.296 69.4074 174.833 73.7593C174.858 73.7593 174.877 73.7593 174.889 73.7593C174.691 72.1914 174.488 70.6173 174.278 69.037C173.71 65.0123 173.142 60.9877 172.574 56.963C170.623 43.5185 168.679 30.0741 166.741 16.6296C165.889 11.0494 165.031 5.46913 164.167 -0.111115C161.982 -0.111115 159.796 -0.111115 157.611 -0.111115C158.29 2.7037 158.963 5.52469 159.63 8.35185C160.778 11.5926 161.185 15.3148 162.093 18.7778ZM172.759 60.8333C173.167 62.8518 173.759 65.1667 173.796 67.3889C173.772 67.3889 173.753 67.3889 173.741 67.3889C173.407 64.537 172.148 61.9074 172.204 58.9259C172.759 59.2037 172.611 60.1296 172.759 60.8333Z" fill="#6493D8"/>
<path d="M147.074 11.6667C147.37 12.2407 147.833 12.9259 148.111 13.6296C152.136 23.4691 156.161 33.3148 160.185 43.1667C163.593 52.0556 167.006 60.9444 170.426 69.8333C170.426 69.8704 170.426 69.9136 170.426 69.963C170.438 69.963 170.457 69.963 170.482 69.963C170.315 67.8333 169.241 65.7593 168.648 63.8333C167.204 59.2222 165.889 54.6481 164.482 50.1667C160.741 38.2593 157.556 26.6481 153.5 15.1481C151.759 10.0617 150.025 4.97531 148.296 -0.111115C146.296 -0.111115 144.29 -0.111115 142.278 -0.111115C142.858 1.23456 143.432 2.58024 144 3.92592C145.025 6.50617 146.049 9.08642 147.074 11.6667ZM167.482 61.0741C167.21 60.358 166.944 59.642 166.685 58.9259C167.093 59.2222 167.389 60.4815 167.482 61.0741Z" fill="#6493D8"/>
<path d="M22.7408 18.4074C25.1852 19.8333 27.8148 20.963 30.0926 22.5185C39.8087 27.7037 49.5185 32.8889 59.2222 38.0741C64.5556 40.9383 69.8889 43.8025 75.2222 46.6667C77.0124 47.5679 78.8087 48.463 80.6111 49.3518C85.3519 52.1296 90.3704 54.5926 95.4445 56.963C100.722 59.4259 105.852 62.3518 111.259 64.7407C121.204 69.1481 130.685 74.3518 140.759 78.7778C143.142 79.9259 145.531 81.0741 147.926 82.2222C149 82.7037 150.111 83.5741 151.352 83.8148C140.586 77.9136 129.821 72.0062 119.056 66.0926C110.858 61.4136 102.661 56.7346 94.463 52.0556C78.0556 42.0556 61.5185 32.0926 45.6667 21.537C37.4815 16.0741 29.1111 10.9444 21.1482 5.35185C19.2716 4.08024 17.3889 2.80864 15.5 1.53703C14.8704 1.09259 13.6667 0.7037 13.4259 -0.111115C8.70989 -0.111115 3.98767 -0.111115 -0.740723 -0.111115C-0.740723 1.60493 -0.740723 3.32098 -0.740723 5.03703C2.62965 7.02469 6.00002 9.00617 9.37039 10.9815C13.8272 13.4506 18.284 15.9259 22.7408 18.4074Z" fill="#6493D8"/>
<path d="M194.389 56.037C192.389 61.5432 190.389 67.0432 188.389 72.537C189.352 71.5556 190.222 68.3519 190.833 66.963C192.963 62.1296 195.13 57.2778 197.278 52.3704C202.407 40.6296 207.685 28.7778 212.852 16.8704C214.519 13.0185 216.204 9.14815 217.926 5.22222C218.704 3.44444 219.482 1.66666 220.259 -0.111115C218.296 -0.111115 216.333 -0.111115 214.37 -0.111115C213.482 3.35185 212.056 6.7037 210.759 9.88889C208.982 14.2778 207.722 18.7963 206.037 23.1296C203.074 31.3395 200.111 39.5494 197.148 47.7593C196.235 50.5247 195.315 53.284 194.389 56.037Z" fill="#6493D8"/>
<path d="M189.111 54.6296C188.012 59.7654 186.914 64.8951 185.815 70.0185C185.827 70.0185 185.846 70.0185 185.87 70.0185C188.185 61.3148 190.944 52.5926 193.593 44.0926C196.944 33.3704 199.741 22.5556 202.352 11.2963C203.204 7.61111 204.704 3.66666 205.37 -0.111115C203.247 -0.111115 201.117 -0.111115 198.981 -0.111115C198.926 2.48148 198.167 5.03703 197.704 7.42592C196.926 11.4444 196.5 15.2778 195.741 19.1296C193.889 28.4444 192.685 37.6481 190.593 46.6667C190.099 49.321 189.605 51.9753 189.111 54.6296Z" fill="#6493D8"/>
<path d="M82.8149 21.4074C87.8025 25.7407 92.7902 30.0741 97.7778 34.4074C108.315 42.7222 118.482 51.3518 129.167 59.537C134.222 63.4259 139.259 67.3704 144.482 71.1296C146.074 72.2593 147.611 73.4815 149.204 74.6111C149.796 75.037 150.278 75.6296 150.982 75.9074C148.228 73.5741 145.469 71.2407 142.704 68.9074C141.642 67.9074 140.58 66.9074 139.519 65.9074C136.049 62.8827 132.58 59.858 129.111 56.8333C127.099 54.9815 125.093 53.1235 123.093 51.2593C120.068 48.5185 117.043 45.7839 114.019 43.0556C113.228 42.2531 112.432 41.4506 111.63 40.6481C108.556 38.1852 106.093 34.963 103.056 32.5C98.5371 28.2284 94.0186 23.9568 89.5 19.6852C84.4383 14.9444 79.3704 10.2037 74.2963 5.46296C73.2037 4.59259 68.9445 0.981478 68.5371 -0.111115C65.0062 -0.111115 61.4692 -0.111115 57.926 -0.111115C60.605 2.1358 63.284 4.38271 65.963 6.62963C71.7963 11.2963 76.963 16.7407 82.8149 21.4074Z" fill="#6493D8"/>
<path d="M88.2222 11.1111C91.3704 14.2593 94.4444 17.5185 97.5926 20.6667C101.426 24.5 105.019 28.8333 109.241 32.2593C110.815 33.537 112.056 35.2037 113.648 36.4815C116.019 38.3889 117.889 40.9444 120.278 42.8704C121.957 44.5 123.63 46.1296 125.296 47.7593C131.907 53.1111 137.444 59.7037 144.13 65C146.858 67.5309 149.593 70.0617 152.333 72.5926C152.358 72.5926 152.383 72.5926 152.407 72.5926C150.827 71 149.253 69.4074 147.685 67.8148C144.327 64.2346 140.975 60.6605 137.63 57.0926C133.802 53.0062 129.981 48.9198 126.167 44.8333C123.327 41.7469 120.488 38.6605 117.648 35.5741C117.056 34.9938 116.463 34.4198 115.87 33.8518C110.895 28.4321 105.926 23.0185 100.963 17.6111C97.6111 13.7963 93.7407 10.4074 90.537 6.44444C89.1111 4.68518 86.2778 2.61111 85.2778 0.685182C85.2901 0.598762 85.3086 0.518515 85.3333 0.444441C85.5 0.129626 85.7407 0.185182 86.1296 0.259256C86.1543 0.135799 86.1728 0.0123423 86.1852 -0.111115C83.0864 -0.111115 79.9815 -0.111115 76.8704 -0.111115C78.6728 1.62963 80.4691 3.36419 82.2593 5.09259C84.2469 7.10493 86.2346 9.11111 88.2222 11.1111Z" fill="#6493D8"/>
<path d="M88.8334 40.7778C91.3642 42.5309 93.8951 44.2901 96.4259 46.0555C97.963 46.963 99.3889 47.6111 100.833 48.5556C106.926 52.5556 112.907 56.8333 119.241 60.5185C121.685 62.0864 124.136 63.6605 126.593 65.2407C131.019 67.963 135.389 70.537 139.889 73.2037C142.42 74.7346 144.957 76.2654 147.5 77.7963C144.426 75.7222 141.358 73.642 138.296 71.5555C136.951 70.5309 135.605 69.5062 134.259 68.4815C130.173 65.6296 126.086 62.7716 122 59.9074C103.833 46.9259 86.3889 32.963 68.6667 19.5741C62.4815 14.9074 56.7222 9.68518 50.6296 4.98148C49.1111 3.79629 47.7222 2.48148 46.2222 1.29629C45.7593 0.925923 44.8334 0.555552 45.0556 -0.111115C40.1543 -0.111115 35.2531 -0.111115 30.3519 -0.111115C41.6729 7.87654 52.9877 15.8642 64.2963 23.8518C72.3889 29.5741 80.4074 35.4444 88.8334 40.7778Z" fill="#6493D8"/>
<path d="M123.833 35.2593C127.796 39.716 131.759 44.1728 135.722 48.6296C140.037 54.0556 145.296 58.7407 149.574 64.1296C151.278 66.2778 153.333 68.0926 155.037 70.2037C155.722 71.0741 156.426 72.037 157.296 72.7222C152.889 67.2407 148.475 61.7654 144.056 56.2963C133.944 43.1667 123.5 30.3889 113.537 17.1852C110.5 13.1667 107.185 9.38889 104.148 5.35185C103.185 4.05555 100.278 1.29629 99.8704 -0.111115C97.784 -0.111115 95.6976 -0.111115 93.6111 -0.111115C100.667 8.27777 108.093 16.3889 114.944 25.0185C117.741 28.5556 121.037 31.7037 123.833 35.2593Z" fill="#6493D8"/>
<path d="M301.611 19.7593C289.611 27.7407 277.389 35.3889 265.074 43.0556C256.21 48.7963 247.34 54.537 238.463 60.2778C231.815 64.3704 225.204 68.4259 218.722 72.6481C215.537 74.6728 212.352 76.6975 209.167 78.7222C212.414 76.9074 215.661 75.0926 218.907 73.2778C225.63 69.7963 232.167 66.1111 238.722 62.537C257.315 52.3889 275.5 41.8148 293.519 31.1481C298.13 28.4259 302.796 26.0556 307.37 23.3148C315.722 18.2778 324.463 13.8889 332.944 8.9074C335.265 7.61111 337.593 6.32098 339.926 5.03703C340.593 4.64814 346.278 1.38889 349.407 -0.111115C343.099 -0.111115 336.79 -0.111115 330.482 -0.111115C330.537 0.407404 330.722 0.296293 330.852 0.685182C330.482 1.31481 329.667 1.55555 329.074 1.98148C326.914 3.36419 324.747 4.75308 322.574 6.14814C319.549 8.17284 316.525 10.1914 313.5 12.2037C309.537 14.7222 305.574 17.2407 301.611 19.7593Z" fill="#6493D8"/>
<path d="M341.093 12.5741C338.389 14.4259 335.241 15.6667 332.389 17.3518C326.593 20.7778 320.463 23.6111 314.611 27.0555C302.13 34.3704 289.074 40.8148 276.593 48.2037C273.204 50.2037 269.593 51.7593 266.241 53.7222C259.352 57.2531 252.463 60.7839 245.574 64.3148C242.982 65.5617 240.389 66.8086 237.796 68.0555C235.895 69.0185 233.994 69.9815 232.093 70.9444C226.87 73.2593 221.778 75.9259 216.833 78.537C213.438 80.216 210.043 81.8951 206.648 83.5741C210.698 81.858 214.747 80.142 218.796 78.4259C227.444 75.0555 235.667 70.9815 244.111 67.4444C252.889 63.7593 261.333 59.963 269.907 56.037C272.673 54.7284 275.432 53.4197 278.185 52.1111C282.611 50.2593 286.833 48.1481 291 46.0555C293.889 44.6111 296.815 43.3333 299.519 41.7593C305.185 38.8333 310.846 35.9136 316.5 33C323.475 29.321 330.444 25.642 337.407 21.963C339.901 20.716 342.395 19.4691 344.889 18.2222C347.543 16.8518 350.198 15.4815 352.852 14.1111C353.759 13.5926 355.13 12.4444 356.296 12.3889C356.296 9.14197 356.296 5.90122 356.296 2.66666L341.093 12.5741Z" fill="#6493D8"/>
<path d="M347.037 182.333C339.259 178.37 331.481 174.296 323.426 170.741C318.623 168.395 313.827 166.043 309.037 163.685C291.444 155.926 274.556 147.296 257.222 139.167C252.346 136.784 247.463 134.395 242.574 132C232.278 126.827 221.981 121.654 211.685 116.481C212.438 116.938 213.191 117.389 213.944 117.833C216.315 119.315 218.796 120.667 221.241 122.13C227.735 125.809 234.235 129.488 240.741 133.167C246.642 136.5 252.543 139.827 258.444 143.148C266.765 147.642 275.086 152.142 283.407 156.648C292.426 161.667 301.741 166.259 310.556 171.407C312.79 172.556 315.019 173.704 317.241 174.852C326.377 179.815 335.512 184.778 344.648 189.741C348.525 191.914 352.407 194.08 356.296 196.241C356.296 193.117 356.296 189.994 356.296 186.87C356.111 186.648 354.444 186.093 354.093 185.889C351.735 184.704 349.383 183.518 347.037 182.333Z" fill="#6493D8"/>
<path d="M315.463 144.741C310.463 143.148 305.457 141.556 300.444 139.963C289.704 136.463 278.407 133.204 267.889 129.241C261.778 127.241 255.667 125.235 249.556 123.222C242.111 120.315 234.333 118.019 226.704 115.315C224 114.37 221.315 113.519 218.482 112.63C217.444 112.296 216.401 111.969 215.352 111.648C216.444 112.481 218.241 112.722 219.593 113.241C222.383 114.302 225.179 115.364 227.981 116.426C237.401 120.13 246.821 123.827 256.241 127.518C261.463 129.759 266.944 131.5 272.315 133.722C283.648 138.37 295.463 142.352 306.815 146.833C312.272 148.833 317.728 150.833 323.185 152.833C330.42 155.599 337.654 158.358 344.889 161.111C348.691 162.605 352.494 164.099 356.296 165.593C356.296 163.284 356.296 160.975 356.296 158.667C351.741 157.074 347.185 155.481 342.63 153.889C333.722 150.426 324.167 148.426 315.463 144.741Z" fill="#6493D8"/>
<path d="M345.444 168.537C338 165.488 330.562 162.444 323.13 159.407C316.117 156.543 309.105 153.679 302.093 150.815C299.407 149.778 296.981 149.056 294.37 147.944C279.926 141.741 265.167 135.981 250.796 129.796C242.667 126.296 234.389 122.87 226.148 119.37C222.025 117.654 217.895 115.938 213.759 114.222C214.574 115.019 216.037 115.389 217.13 115.87C219.685 117 222.185 118.389 224.796 119.556C233.525 123.667 242.253 127.772 250.982 131.87C261.5 136.833 272.019 141.802 282.537 146.778C290.759 150.469 298.975 154.167 307.185 157.87C308.173 158.401 309.154 158.932 310.13 159.463C314.809 161.586 319.488 163.71 324.167 165.833C331.611 169.537 339.278 172.981 346.981 176.389C350.08 177.809 353.185 179.235 356.296 180.667C356.296 178.16 356.296 175.648 356.296 173.13C355.185 173.056 354.296 172.333 353.407 171.963C350.722 170.833 348.019 169.648 345.444 168.537Z" fill="#6493D8"/>
<path d="M243.13 194.037C239.599 189.21 236.062 184.389 232.519 179.574C225.247 169.154 217.975 158.728 210.704 148.296C208.222 144.457 205.747 140.617 203.278 136.778C200.685 132.889 198.019 128.944 195.37 125C194.148 123.185 192.444 121.315 191.574 119.241C191.512 119.204 191.451 119.167 191.389 119.13C195.352 126.401 199.315 133.673 203.278 140.944C204.377 143.056 205.482 145.161 206.593 147.259C212.086 156.963 217.58 166.673 223.074 176.389C226.63 181.815 229.444 187.722 232.833 193.37C233.537 194.556 236.593 198.852 236.685 199.981C240.352 199.981 244.012 199.981 247.667 199.981C247.426 199.241 246.685 198.667 246.259 198.074C245.21 196.728 244.167 195.383 243.13 194.037Z" fill="#6493D8"/>
<path d="M344.759 198.204C342.13 196.648 339.494 195.093 336.852 193.537C330.963 190.056 324.926 186.574 318.963 183C315.759 181.093 312.722 179.111 309.278 177.426C299.92 172.006 290.562 166.593 281.204 161.185C274.451 157.395 267.704 153.611 260.963 149.833C252.296 144.685 243.611 139.722 234.982 134.519C228.259 130.463 221.556 126.426 214.87 122.259C212.228 120.556 209.593 118.858 206.963 117.167C207.926 118.315 209.63 119.074 210.889 119.926C213.574 121.704 216.13 123.685 218.796 125.556C226.667 131.148 234.796 136.389 242.704 141.982C250.13 147.259 257.815 152.37 265.63 157.185C268.321 159.012 271.019 160.833 273.722 162.648C281.148 167.259 288.315 172.185 295.722 176.87C305.37 182.963 314.648 189.574 324.352 195.685C326.426 197 328.426 198.796 330.537 199.982C336.29 199.982 342.037 199.982 347.778 199.982C347.519 199.463 345.37 198.574 344.759 198.204Z" fill="#6493D8"/>
<path d="M265.019 177.241C263.969 176.302 262.926 175.364 261.889 174.426C253.722 168.074 246.426 160.759 238.407 154.315C234.537 151.204 231.148 147.5 227.241 144.389C225.821 143.056 224.395 141.722 222.963 140.389C217.241 135.796 212.278 130.333 206.537 125.741C204.105 123.469 201.673 121.204 199.241 118.944C200.586 120.352 201.932 121.759 203.278 123.167C205.704 126.167 208.537 128.759 211.074 131.63C214.568 135.37 218.062 139.111 221.556 142.852C222.284 143.543 223.019 144.235 223.759 144.926C225.926 147.63 228.759 149.796 230.926 152.482C234.506 156.148 238.08 159.821 241.648 163.5C245.451 167.327 249.253 171.148 253.056 174.963C254.204 176.389 255.759 177.481 256.926 178.889C260.086 181.963 263.253 185.031 266.426 188.093C268.364 190.068 270.302 192.049 272.241 194.037C273.037 194.667 278.074 199.389 278.259 199.981C282.827 199.981 287.401 199.981 291.982 199.981C292.006 199.944 292.031 199.901 292.056 199.852C289.265 197.543 286.482 195.235 283.704 192.926C277.352 187.87 271.444 182.259 265.019 177.241Z" fill="#6493D8"/>
<path d="M255.815 118.444C252.815 117.605 249.809 116.772 246.796 115.944C245.29 115.673 243.784 115.407 242.278 115.148C240.006 114.667 237.735 114.191 235.463 113.722C236.759 113.241 242.833 115.019 244.296 115.315C243.481 114.556 236.759 113.241 235.093 112.87C231.648 112.111 227.574 111.611 224.241 110.611C221.093 109.648 217.87 108.222 214 108.093C220.506 110.068 227.006 112.049 233.5 114.037C243.63 118.019 254.778 120.648 265.259 124.278C267.383 124.784 269.506 125.296 271.63 125.815C277.963 127.605 284.296 129.401 290.63 131.204C289.963 131.389 285.537 129.889 284.63 129.611C279.173 128.154 273.716 126.704 268.259 125.259C268.259 125.272 268.259 125.29 268.259 125.315C272.383 126.66 276.512 128.012 280.648 129.37C280.846 129.593 281.049 129.815 281.259 130.037C286.494 131.506 291.722 132.975 296.944 134.444C303.759 136.469 310.568 138.494 317.37 140.519C321.056 141.444 324.519 142.352 328.093 143.463C337.488 146.204 346.889 148.938 356.296 151.667C356.296 149.79 356.296 147.914 356.296 146.037C331.574 139.259 306.833 132.463 282.111 125.685C273.346 123.278 264.58 120.864 255.815 118.444ZM243.741 116.296C243.889 116.321 244.031 116.346 244.167 116.37C244 116.426 243.907 116.389 243.741 116.296ZM244.481 116.481C244.741 116.531 245.006 116.574 245.278 116.611C245.037 116.704 244.685 116.611 244.481 116.481ZM280.148 128.741C281.086 129.012 282.031 129.278 282.981 129.537C283.019 129.562 283.056 129.586 283.093 129.611C282.074 129.5 280.852 129.241 280.148 128.741ZM281.259 129.481C282.235 129.79 283.216 130.099 284.204 130.407C283.574 130.593 281.611 129.907 281.259 129.481Z" fill="#6493D8"/>
<path d="M263.852 194.593C258.951 189.481 254.043 184.37 249.13 179.259C246.154 176.099 243.173 172.932 240.185 169.759C238.37 167.796 236.549 165.833 234.722 163.87C227.963 155.481 219.889 148.204 213.148 139.778C209.148 134.778 204.426 130.389 200.463 125.37C198.809 123.395 197.154 121.414 195.5 119.426C196.944 121.389 198.395 123.352 199.852 125.315C201.463 127.537 202.963 129.759 204.5 132.056C205.969 133.994 207.444 135.938 208.926 137.889C218.778 152.315 230.074 165.611 240.37 179.63C244.247 184.518 248.13 189.401 252.019 194.278C252.852 195.407 256.407 198.833 256.611 199.981C260.722 199.981 264.833 199.981 268.944 199.981C268.537 198.722 264.852 195.833 263.852 194.593Z" fill="#6493D8"/>
<path d="M315.778 198.389C313.877 197.056 311.975 195.728 310.074 194.407C302.796 189.278 295.333 184.407 288 179.259C276.21 171.111 264.42 162.957 252.63 154.796C244.444 149.093 236.556 142.963 228.407 137.148C219.815 130.691 211.216 124.235 202.611 117.778C204.994 119.864 207.383 121.951 209.778 124.037C215.185 128.315 220.13 133.185 225.593 137.444C230.728 141.778 235.858 146.111 240.982 150.444C252.303 159.679 263.623 168.92 274.944 178.167C281.593 183.333 288.093 188.741 294.685 193.981C296.463 195.414 298.241 196.839 300.019 198.259C300.593 198.722 301.778 199.259 302.037 199.981C307.37 199.981 312.704 199.981 318.037 199.981C317.759 199.296 316.37 198.815 315.778 198.389Z" fill="#6493D8"/>
<path d="M267.963 125.13C267.815 125.105 267.667 125.086 267.519 125.074C267.667 125.111 267.815 125.148 267.963 125.185C267.963 125.173 267.963 125.154 267.963 125.13Z" fill="#6493D8"/>
<path d="M329.315 36.5555C320.833 40.2407 312.63 44.2592 304.241 47.9444C294.926 52.0555 285.5 55.9815 276.056 59.963C261.241 66.1852 246 71.6481 230.982 77.5555C226.352 79.3889 221.852 81.2593 217.315 83.0741C214.87 84 212.42 84.9197 209.963 85.8333C221.124 82.1543 232.278 78.4753 243.426 74.7963C245.722 74.0802 248.012 73.3642 250.296 72.6481C258.185 69.9815 266.074 67.3086 273.963 64.6296C281.815 61.7654 289.661 58.9012 297.5 56.037C303.611 53.6667 309.722 51.2963 315.833 48.9259C320.278 47.2963 324.87 45.3333 329.204 43.537C334.352 41.5494 339.5 39.5679 344.648 37.5926C347.34 36.5309 350.037 35.4691 352.741 34.4074C353.759 33.9815 355 33.0741 356.296 33.0555C356.296 30.0926 356.296 27.1296 356.296 24.1667C353.235 25.5494 350.167 26.9383 347.093 28.3333C341.093 30.9815 335.259 33.963 329.315 36.5555Z" fill="#6493D8"/>
<path d="M250.722 77.3704C246.006 78.7654 241.29 80.1543 236.574 81.537C233.438 82.4012 230.309 83.2593 227.185 84.1111C224.025 85.0741 220.858 86.037 217.685 87C215.759 87.5309 213.84 88.0617 211.926 88.5926C212.611 88.7963 214 88.2222 214.685 88.037C216.969 87.5062 219.259 86.9753 221.556 86.4444C230.241 84.3518 238.778 82.5926 247.296 80.5C259.111 77.6111 271 75 282.537 71.7963C289.556 69.8519 296.537 68.4259 303.333 66.2778C309.852 64.5617 316.37 62.8457 322.889 61.1296C330.123 59.1667 337.358 57.2037 344.593 55.2407C347.352 54.4074 350.241 53.7778 353.111 52.9074C354.074 52.6296 355.074 52.0926 356.296 52.1111C356.296 49.3333 356.296 46.5555 356.296 43.7778C336.944 50.2222 317.593 56.6481 298.241 63.0926C282.482 68.0741 266.704 72.4815 250.722 77.3704Z" fill="#6493D8"/>
<path d="M85.463 126.963C85.5247 126.926 85.5864 126.889 85.6482 126.852C85.5864 126.852 85.5247 126.852 85.463 126.852C85.1049 126.951 84.7531 127.049 84.4074 127.148C84.7037 127.278 85.2037 127.111 85.463 126.963Z" fill="#6493D8"/>
<path d="M293.093 49.8519C293.006 49.8519 292.926 49.8519 292.852 49.8519C292.759 50.0185 292.741 50.0741 292.722 50.3333C292.821 50.358 292.926 50.3827 293.037 50.4074C293.049 50.3457 293.068 50.284 293.093 50.2222C293.093 50.0988 293.093 49.9753 293.093 49.8519Z" fill="#6493D8"/>
<path d="M316.87 110.056C314.481 109.5 311.667 110.019 309.093 109.63C302.895 109.21 296.704 108.796 290.519 108.389C287.568 108.228 284.623 108.068 281.685 107.907C278.698 107.698 275.716 107.494 272.741 107.296C264.926 106.654 257.117 106.019 249.315 105.389C237.401 104.006 225.488 102.617 213.574 101.222C213.574 101.247 213.574 101.265 213.574 101.278C220.537 102.444 227.333 103.648 234.426 104.963C248.438 106.778 262.457 108.599 276.481 110.426C286.753 111.735 297.031 113.037 307.315 114.333C323.636 116.469 339.963 118.599 356.296 120.722C356.296 117.944 356.296 115.167 356.296 112.389C345.296 111.685 334.302 110.988 323.315 110.296C321.167 110.21 319.019 110.13 316.87 110.056Z" fill="#6493D8"/>
<path d="M231.963 111.889C231.963 111.864 231.963 111.846 231.963 111.833C229.37 111.315 226.5 110.815 223.815 110.111C224.352 110.722 230.63 111.852 231.963 111.889Z" fill="#6493D8"/>
<path d="M300.204 86.2037C297.463 86.5247 294.722 86.8519 291.981 87.1852C289.759 87.4445 287.531 87.7099 285.296 87.9815C276.679 88.9568 268.056 89.9383 259.426 90.9259C256.512 91.2099 253.593 91.4938 250.667 91.7778C249.037 91.9012 247.401 92.0247 245.759 92.1482C237.704 93.4445 228.87 93.1667 220.87 94.537C218.685 94.7222 216.5 94.9074 214.315 95.0926C213.481 95.2222 212.019 94.9259 211.5 95.4074C218.833 95.1605 226.167 94.9136 233.5 94.6667C235.623 94.5679 237.747 94.463 239.87 94.3519C242.475 94.2284 245.074 94.1049 247.667 93.9815C250.914 93.8457 254.16 93.7037 257.407 93.5556C261.963 93.3704 266.519 93.1852 271.074 93C282.704 92.2346 294.333 91.463 305.963 90.6852C310.722 89.9259 316.13 90.4445 320.981 89.7037C322.821 89.6173 324.66 89.5309 326.5 89.4445C336.426 88.8148 346.358 88.1852 356.296 87.5556C356.296 84.7778 356.296 82 356.296 79.2222C341.543 81.1358 326.79 83.0556 312.037 84.9815C308.086 85.3889 304.142 85.7963 300.204 86.2037Z" fill="#6493D8"/>
<path d="M224 109.741C224 109.728 224 109.71 224 109.685C223 109.463 222 109.235 221 109C221.63 109.463 223.148 109.63 224 109.741Z" fill="#6493D8"/>
<path d="M268.63 98.4629C261.247 98.4876 253.87 98.5062 246.5 98.5185C241.611 98.5062 236.728 98.4876 231.852 98.4629C225.185 98.3395 218.525 98.216 211.87 98.0926C215.784 98.3765 219.704 98.6667 223.63 98.9629C228.519 99.7778 234 99.3333 239.019 100.111C240.759 100.222 242.494 100.327 244.222 100.426C246.42 100.549 248.611 100.673 250.796 100.796C253.241 100.883 255.691 100.963 258.148 101.037C270 101.531 281.852 102.025 293.704 102.518C300.407 102.839 307.111 103.167 313.815 103.5C315.222 103.512 316.63 103.531 318.037 103.556C322.309 103.753 326.58 103.957 330.852 104.167C333.778 104.29 336.698 104.414 339.611 104.537C345.179 104.698 350.741 104.858 356.296 105.018C356.296 102.488 356.296 99.9568 356.296 97.4259C335.593 97.8333 314.889 98.2407 294.185 98.6481C285.667 98.5864 277.148 98.5247 268.63 98.4629Z" fill="#6493D8"/>
<path d="M297.444 74.5556C279.889 78.537 261.944 81.8148 244.056 85.5926C239.735 86.4938 235.42 87.3951 231.111 88.2963C228.42 88.7778 225.722 89.2654 223.019 89.7593C220.037 90.5 216.963 90.963 213.759 91.6667C212.475 91.8889 211.191 92.1111 209.907 92.3333C210.796 92.6667 212.333 92.1296 213.278 91.963C215.846 91.642 218.42 91.3148 221 90.9815C223.099 90.7593 225.204 90.537 227.315 90.3148C234.71 89.2037 242.105 88.0988 249.5 87C254.278 86.3457 259.062 85.6914 263.852 85.037C267.568 84.4815 271.284 83.9321 275 83.3889C284.815 81.463 294.981 80.7037 304.556 78.6111C307.679 78.1296 310.802 77.6543 313.926 77.1852C322.481 75.2778 331.5 74.7407 340.111 72.8333C345.506 71.9198 350.901 71 356.296 70.0741C356.296 67.1605 356.296 64.2407 356.296 61.3148C342.481 64.5 328.667 67.6852 314.852 70.8704C309.049 72.1049 303.247 73.3333 297.444 74.5556Z" fill="#6493D8"/>
<path d="M25.0741 171.907C25.0741 171.846 25.0741 171.784 25.0741 171.722C24.9506 171.685 24.8272 171.642 24.7037 171.593C24.8025 171.704 24.9074 171.809 25.0186 171.907C25.0309 171.907 25.0494 171.907 25.0741 171.907Z" fill="#6493D8"/>
<path d="M36.7778 173.63C40.9013 171.556 45.0309 169.488 49.1667 167.426C56.6111 163.259 64.6667 159.63 72.1482 155.352C76.5 152.87 81.1667 151.019 85.463 148.556C91.3395 145.568 97.2222 142.58 103.111 139.593C113.37 133.833 123.963 128.704 134.074 122.741C138.284 120.284 142.494 117.833 146.704 115.389C146.704 115.364 146.704 115.34 146.704 115.315C146.642 115.315 146.58 115.315 146.519 115.315C145.642 115.772 144.759 116.222 143.87 116.667C141.34 117.914 138.809 119.16 136.278 120.407C133.562 121.753 130.846 123.105 128.13 124.463C124.241 126.63 120.13 128.611 115.981 130.407C107.932 134.284 99.8827 138.167 91.8333 142.056C83.2037 145.852 74.6667 149.907 66.2037 153.944C60.6296 156.611 54.8889 158.778 49.1667 161.296C37.3704 166.5 25.8889 172.278 14.0371 177.481C9.11113 179.728 4.1852 181.975 -0.740723 184.222C-0.740723 187.173 -0.740723 190.117 -0.740723 193.056C4.30866 190.401 9.35804 187.747 14.4074 185.093C21.6482 180.87 29.7222 178 36.7778 173.63Z" fill="#6493D8"/>
<path d="M65.1667 169.574C79.1667 161.648 93.0926 153.778 106.667 145.426C111.568 142.302 116.469 139.173 121.37 136.037C126.222 132.981 130.963 129.963 135.722 126.778C137.352 125.617 138.988 124.457 140.63 123.296C142.833 121.907 144.815 120.37 146.944 118.944C148.074 118.167 149.611 117.5 150.5 116.481C147.29 118.432 144.08 120.377 140.87 122.315C133.191 126.833 125.506 131.346 117.815 135.852C92.3519 150.815 65.3148 163.759 38.6111 177.426C35.5741 178.981 32.3148 180.667 29.3704 182.444C23.3827 185.457 17.3951 188.463 11.4074 191.463C8.66668 192.87 5.92594 194.278 3.1852 195.685C1.87656 196.302 0.567919 196.92 -0.740723 197.537C-0.740723 198.352 -0.740723 199.167 -0.740723 199.981C4.24693 199.981 9.23459 199.981 14.2222 199.981C23.8334 194.148 33.7778 188.296 43.5185 182.518C50.7778 178.204 57.8704 173.704 65.1667 169.574Z" fill="#6493D8"/>
<path d="M51.0556 156.204C67.6297 149 84.1852 141.426 100.722 134.148C110.932 129.358 121.148 124.574 131.37 119.796C135.642 117.71 139.914 115.623 144.185 113.537C144.21 113.5 144.228 113.463 144.241 113.426C144.179 113.426 144.117 113.426 144.056 113.426C137.599 116.142 131.142 118.858 124.685 121.574C121.87 122.907 118.815 123.889 115.926 125.259C107.204 129.37 98.0926 132.833 89.0185 136.537C79.6667 140.333 70.1852 144.167 60.6852 147.87C60.0185 148.031 59.3457 148.198 58.6667 148.37C48.5 152.352 38.2778 156.111 28.0185 160.13C21.9815 162.5 15.6852 164.704 9.55557 167.13C6.12348 168.438 2.69138 169.747 -0.740723 171.056C-0.740723 173.339 -0.740723 175.623 -0.740723 177.907C6.06175 174.994 12.8704 172.074 19.6852 169.148C30.2408 164.741 40.6482 160.759 51.0556 156.204Z" fill="#6493D8"/>
<path d="M26.7223 182.074C26.6235 182.062 26.5247 182.043 26.426 182.018C26.3766 182.105 26.3334 182.185 26.2963 182.259C26.5371 182.222 26.5926 182.204 26.7223 182.074Z" fill="#6493D8"/>
<path d="M77.7222 129.907C77.7716 129.957 77.8148 130 77.8519 130.037C78.2778 129.907 78.7593 129.87 78.8889 129.426C78.7901 129.426 78.6914 129.426 78.5926 129.426C78.321 129.549 78.0556 129.673 77.7963 129.796C77.7716 129.833 77.7469 129.87 77.7222 129.907Z" fill="#6493D8"/>
<path d="M58 143.759C68.6667 139.593 79.8519 135.648 90.5371 131.389C95.6235 129.463 100.716 127.543 105.815 125.63C118.198 120.741 130.58 115.852 142.963 110.963C142.963 110.951 142.963 110.932 142.963 110.907C142.901 110.907 142.84 110.907 142.778 110.907C136.383 112.994 129.988 115.08 123.593 117.167C111.259 121.944 98.1297 125.407 85.7593 130.167C81.9445 131.463 78.1235 132.765 74.2963 134.074C72.8704 134.667 71.3889 134.778 69.8889 135.315C61.9383 138.006 53.9877 140.704 46.0371 143.407C41.8889 145 37.4259 146.019 33.463 147.685C29.9321 148.833 26.4013 149.981 22.8704 151.13C15.0185 153.747 7.17286 156.358 -0.666649 158.963C-0.69134 161.012 -0.716031 163.056 -0.740723 165.093C13.7037 159.821 28.1543 154.549 42.6111 149.278C47.7222 147.278 52.8334 145.778 58 143.759Z" fill="#6493D8"/>
<path d="M84.2222 127.333C84.2222 127.321 84.2222 127.302 84.2222 127.278C84.1605 127.278 84.0988 127.278 84.0371 127.278C83.4939 127.463 82.9445 127.648 82.3889 127.833C82.8889 127.963 83.7222 127.481 84.2222 127.333Z" fill="#6493D8"/>
<path d="M36.8333 142.426C36.8333 142.377 36.8333 142.333 36.8333 142.296C36.7593 142.296 36.679 142.296 36.5926 142.296C36.7222 142.426 36.6111 142.37 36.8333 142.426Z" fill="#6493D8"/>
<path d="M179.37 164.556C179.21 159.543 179.049 154.537 178.889 149.537C178.778 146.574 178.673 143.611 178.574 140.648C178.488 137.759 178.407 134.877 178.333 132C178.272 129.407 178.21 126.809 178.148 124.204C178.111 122.722 178.068 121.235 178.019 119.741C177.883 117.802 177.741 115.858 177.593 113.907C177.568 113.907 177.549 113.907 177.537 113.907C177.228 117.34 176.92 120.772 176.611 124.204C176.475 126.438 176.333 128.667 176.185 130.889C175.667 134.222 175.944 137.722 175.444 140.889C175.136 144.877 174.833 148.858 174.537 152.833C174.105 158.031 173.673 163.222 173.241 168.407C172.216 178.938 171.198 189.463 170.185 199.981C173.753 199.981 177.327 199.981 180.907 199.981C180.636 193.994 180.37 188.006 180.111 182.019C179.864 176.191 179.617 170.37 179.37 164.556ZM176.981 123.481C177.167 120.901 177.352 118.327 177.537 115.759C177.636 118.142 177.735 120.531 177.833 122.926C177.574 123.093 177.13 123.204 176.981 123.481Z" fill="#6493D8"/>
<path d="M173.111 124.093C173.506 121.451 173.895 118.815 174.278 116.185C174.265 116.185 174.247 116.185 174.222 116.185C172.278 125.056 169.815 133.963 167.241 142.426C163.981 153.056 161.444 163.63 158.167 174.111C156.488 179.753 154.809 185.395 153.13 191.037C152.278 194.012 151.42 196.994 150.556 199.981C153.642 199.981 156.728 199.981 159.815 199.981C161.025 193.5 162.228 187.025 163.426 180.556C165.599 168.407 167.765 156.265 169.926 144.13C170.148 142.475 170.377 140.821 170.611 139.167C171.451 134.142 172.284 129.117 173.111 124.093ZM173.241 121.333C173.481 122.167 172.481 126.444 172.074 127.037C172.074 127.074 172.074 127.111 172.074 127.148C172.049 127.148 172.031 127.148 172.019 127.148C172.037 124.944 172.815 123.222 173.241 121.333ZM171.889 127.333C171.914 127.333 171.938 127.333 171.963 127.333C171.914 127.42 171.87 127.506 171.833 127.593C171.809 127.593 171.79 127.593 171.778 127.593C171.815 127.506 171.852 127.42 171.889 127.333Z" fill="#6493D8"/>
<path d="M221.667 192.685C218.988 187.105 216.315 181.525 213.648 175.944C212 172.241 210.037 168.759 208.426 165.093C204.63 156.481 200.5 147.87 196.722 139.296C193.858 132.839 190.994 126.383 188.13 119.926C188.13 119.877 188.13 119.833 188.13 119.796C188.117 119.796 188.099 119.796 188.074 119.796C190.383 126.66 192.691 133.525 195 140.389C198.222 150.407 200.963 160.5 204.685 170.13C205.796 173.463 206.901 176.796 208 180.13C210.346 186.747 212.698 193.364 215.056 199.981C218.426 199.981 221.796 199.981 225.167 199.981C225.056 199.13 224.463 198.463 224.13 197.778C223.303 196.086 222.482 194.389 221.667 192.685Z" fill="#6493D8"/>
<path d="M168.889 122.87C169.519 121.006 170.154 119.142 170.796 117.278C170.772 117.278 170.747 117.278 170.722 117.278C168.87 122.019 166.463 126.537 164.482 131.148C161.852 137.185 159.111 143.222 155.889 148.796C152.42 155.66 148.944 162.525 145.463 169.389C142.037 175.259 139.481 181.704 136.037 187.593C133.802 191.704 131.574 195.815 129.352 199.926C129.352 199.938 129.352 199.957 129.352 199.981C133.043 199.981 136.741 199.981 140.444 199.981C140.519 198.352 142.111 195.185 142.704 193.667C144.444 189.025 146.185 184.389 147.926 179.759C153.315 165.907 158.389 152.389 163.426 138.185C165.241 133.111 167.056 128.037 168.889 122.87Z" fill="#6493D8"/>
<path d="M181.982 119.13C182.519 124.833 186.463 163.222 187.333 170C188.667 180 190 189.994 191.333 199.981C195.457 199.981 199.58 199.981 203.704 199.981C202.049 193.179 200.395 186.377 198.741 179.574C195.667 166.815 183.352 124.5 181.982 119.13ZM186.111 145.667C186 145.5 186.056 145.611 186.056 145.426C186.117 145.463 186.179 145.5 186.241 145.537C186.204 145.586 186.161 145.63 186.111 145.667Z" fill="#6493D8"/>
<path d="M150.796 133.537C153.852 129.407 157.056 125.407 160.13 121.278C161.204 119.796 163.315 117.852 163.981 116.185C162.648 117.185 161.519 118.796 160.481 120.111C158.944 122.056 157.093 123.778 155.519 125.741C151.309 130.358 147.099 134.975 142.889 139.593C139.074 143.617 135.253 147.642 131.426 151.667C130.352 152.716 129.272 153.759 128.185 154.796C119.975 163.08 111.759 171.358 103.537 179.63C100.352 182.926 97.1667 186.216 93.9815 189.5C92.6235 190.833 91.2716 192.16 89.9259 193.481C88.6667 195.037 87.0741 196.333 85.6481 197.722C84.9321 198.414 84.216 199.105 83.5 199.796C83.5 199.858 83.5 199.92 83.5 199.981C87.9321 199.981 92.3642 199.981 96.7963 199.981C96.9444 199.019 100.889 195.074 101.704 194.037C105.778 188.815 110.167 183.852 114.204 178.648C126.111 163.352 139.278 149.167 150.796 133.537Z" fill="#6493D8"/>
<path d="M127.685 148.37C130.611 146.037 132.963 142.963 135.852 140.648C138.383 138.191 140.914 135.735 143.444 133.278C146 130.889 148.667 128.352 150.87 125.63C152.37 123.759 154.315 122.222 155.833 120.352C156.389 119.667 157.278 119.222 157.667 118.389C155.358 120.512 153.049 122.636 150.741 124.759C144.914 129.772 139.093 134.778 133.278 139.778C126.142 145.58 119.006 151.383 111.87 157.185C102.111 164.741 92.3889 172.296 82.4445 179.685C76.5 184.111 70.6111 188.704 64.6667 193.185C62.8333 194.556 60.8889 195.87 59.037 197.278C58.037 198.056 57.037 199.315 55.7778 199.741C55.7654 199.778 55.7469 199.815 55.7222 199.852C56.6111 200.333 58.9074 199.981 60.0741 199.981C63.6914 199.981 67.3087 199.981 70.9259 199.981C70.9259 199.883 70.9259 199.784 70.9259 199.685C73.1852 198.426 74.8333 196 76.8148 194.407C81.5 190.63 85.3889 185.907 90.0556 182.148C102.599 170.889 115.142 159.63 127.685 148.37Z" fill="#6493D8"/>
<path d="M150.37 148.056C152.537 144.518 154.204 140.852 156.315 137.204C158.796 132.963 160.981 128.5 163.5 124.204C164.574 122.253 165.654 120.296 166.741 118.333C165.185 120.642 163.636 122.951 162.093 125.259C159.068 129.42 156.043 133.586 153.019 137.759C143.241 151.5 132.667 164.574 122.537 178.037C118.574 183.185 114.611 188.333 110.648 193.481C109.302 195.185 107.957 196.883 106.611 198.574C106.259 199.019 105.667 199.37 105.5 199.981C110.043 199.981 114.58 199.981 119.111 199.981C119.241 198.778 122 194.963 122.722 193.852C125.944 188.981 128.722 183.722 131.741 178.778C137.951 168.531 144.16 158.29 150.37 148.056Z" fill="#6493D8"/>
<path d="M94.4074 164.111C98.2223 161.407 101.889 158.481 105.815 155.852C107.259 154.728 108.71 153.605 110.167 152.481C116.944 147.63 123.37 142.315 130.019 137.389C134.759 133.889 139.185 130.093 143.815 126.481C144.914 125.457 146.019 124.432 147.13 123.407C148.778 122.111 150.315 120.648 151.963 119.37C152.765 118.691 153.562 118.019 154.352 117.352C154.315 117.352 154.278 117.352 154.241 117.352C153.278 118.08 152.315 118.815 151.352 119.556C149.074 121.241 146.778 122.926 144.426 124.574C138.296 128.889 132.315 133.426 126.037 137.63C117.963 143.056 109.926 148.722 101.704 154.074C88.5926 162.574 75.1297 170.481 61.7223 178.648C53.8704 183.444 45.9074 188.259 38.1297 193.185C36.1297 194.444 34.1297 195.71 32.1297 196.981C31.0556 197.759 29 199.444 27.6482 199.741C27.6111 199.802 27.5679 199.864 27.5186 199.926C27.5186 199.938 27.5186 199.957 27.5186 199.981C33.3457 199.981 39.1729 199.981 45 199.981C45.1111 199.37 46.2778 198.87 46.8334 198.444C48.6482 197.123 50.4692 195.796 52.2963 194.463C59.463 189.222 66.7037 184.019 73.926 178.778C80.7037 173.852 87.5556 168.981 94.4074 164.111Z" fill="#6493D8"/>
<path d="M15.2037 199.981C15.1173 199.944 15.0371 199.901 14.963 199.852C14.8334 200.037 15.0186 199.963 15.2037 199.981Z" fill="#6493D8"/>
<path d="M356.296 136.63V127.833L213.759 105.018L356.296 136.63Z" fill="#6493D8"/>
<path d="M-0.740723 128.741V136.63L140.148 105.018L-0.740723 128.741Z" fill="#6493D8"/>
<path style="mix-blend-mode:soft-light" fill-rule="evenodd" clip-rule="evenodd" d="M0 0V200H355.556V0H0Z" fill="url(#paint0_radial_11_216)"/>
</g>
</g>
</g>
<defs>
<radialGradient id="paint0_radial_11_216" cx="0" cy="0" r="1" gradientUnits="userSpaceOnUse" gradientTransform="translate(177.778 100) scale(178.466 178.466)">
<stop offset="0.428" stop-color="#1D91CA"/>
<stop offset="1" stop-opacity="0"/>
</radialGradient>
<clipPath id="clip0_11_216">
<rect width="355.556" height="200" fill="white"/>
</clipPath>
</defs>
</svg>
